<?xml version="1.0" encoding="UTF-8"?>
<svg width="78.931mm" height="21.574mm" version="1.1" viewBox="0 0 78.931 21.574" xmlns="http://www.w3.org/2000/svg" xmlns:cc="http://creativecommons.org/ns#" xmlns:dc="http://purl.org/dc/elements/1.1/" xmlns:rdf="http://www.w3.org/1999/02/22-rdf-syntax-ns#">
 <metadata>
  <rdf:RDF>
   <cc:Work rdf:about="">
    <dc:format>image/svg+xml</dc:format>
    <dc:type rdf:resource="http://purl.org/dc/dcmitype/StillImage"/>
    <dc:title/>
   </cc:Work>
  </rdf:RDF>
 </metadata>
 <path d="m10.456 0.023554c-0.05335 0.88855-0.01617 1.698-0.07368 2.6576-0.11967 1.9947-0.02661 4.0131-0.0096 6.0103 0.0073 0.87039-0.0087 1.8015 0.05346 2.6652 0.02255 0.31375 0.0785 0.58202-0.05419 0.84429-0.09978 0.19752-0.32122 0.28864-0.49923 0.39302-0.38272 0.22442-0.78707 0.50463-1.1612 0.75275-1.269 0.84168-2.5959 1.8056-3.423 3.1113-0.39342 0.62109-0.74234 1.3726-0.43977 2.1204 0.39343 0.97223 1.4955 1.5151 2.4066 1.8597 2.3063 0.87223 5.4765 0.93521 7.7913 0.3807 0.79805-0.19115 1.4348-0.32466 2.1098-0.81456-0.48697-0.44768-0.91401-0.90525-1.229-1.5336-0.34946-0.69712-0.34408-1.6506-0.07657-2.409 0.16382-0.46443 0.37929-0.80098 0.83169-1.0361 1.0441-0.5427 2.7974-0.57998 3.6475 0.31568 0.53198 0.56047 0.56544 1.2417 0.24221 1.9484-0.62125 1.3584-2.1101 1.8597-3.0788 2.8206 1.0978 0.87781 3.3095 0.91013 4.768 0.6792 0.85316-0.13512 1.6346-0.25135 2.1078-0.78162-0.69785-0.58528-1.8074-1.9708-2.3559-3.061-0.63666-1.2656-0.93497-2.5456-1.0393-3.9266-0.02449-0.32442-0.01418-0.5876 0.0072-0.94414 0.02119-0.35303 0.02556-0.53911 0.08773-0.85344 0.07448-0.3767 0.19963-0.97509 0.41152-1.3492 0.48805-0.86178 1.4319-1.6782 2.334-2.081 0.40482-0.18067 0.76476-0.22603 1.2139-0.19581 1.7681 0.1187 2.9432 1.8958 3.368 3.4648 0.26581 0.98182 0.20193 1.9071 0.01358 2.9204-0.12187 0.65543-0.46504 1.1737-0.35122 1.7822 0.56213-0.15345 1.5404-0.2862 2.1241 0.31549 0.26661 0.27491 0.41987 0.58989 0.51627 0.95934 0.15884 0.60823 0.0347 1.1084-0.26702 1.6155-0.4149 0.69752-1.2328 1.4248-2.0502 1.7393-0.40407 0.15538-0.97843 0.27495-1.3907 0.27905-0.21386 0.0021-0.36419-0.01402-0.5994-0.02827-0.2287-0.01385-0.38441-0.01491-0.59804-0.05087-0.55844-0.09407-1.0056-0.41889-1.4298-0.50025m-24.02-16.126c0.90464-1.6487 2.7638-2.0087 4.4366-2.3835 1.5774-0.35337 3.2162-0.6424 4.8577-0.81559 0.28094-0.029636 0.51882-0.051349 0.77672-0.064749 0.20716-0.010764 0.38571-0.029708 0.60355-0.041012 2.1081-0.10938 4.2337 0.078137 6.3421 0.20472 1.4486 0.086968 2.8888 0.3121 4.2421 0.85578 0.50217 0.20173 1.0733 0.44588 1.3228 0.93938 0.602 1.1907-1.2895 2.5699-2.0871 3.2078-2.2247 1.7794-4.7631 3.1259-7.2276 4.5316-0.87146 0.49708-2.2677 1.2904-3.0239 1.7371m31.595-8.4934c0.66446-0.41034 1.5899-0.53145 2.3508-0.53814 0.32493-0.00286 0.50647 0.022693 0.85608 0.043684 0.49942 0.029985 0.68436 0.014626 1.1114 0.081314 1.6804 0.2624 3.6295 0.80994 5.0455 1.7779 0.41506 0.28373 0.89952 0.59873 1.2171 0.99128 0.2996 0.37036 0.34348 0.72378 0.27396 1.2152-0.11187 0.79074-0.8284 1.4706-1.3991 1.9765-0.82318 0.72994-1.7998 1.2981-2.7737 1.8661-0.69027 0.4026-1.9051 0.94913-1.945 1.8868-0.03283 0.77164 0.93532 1.2326 1.4789 1.585 0.80868 0.52427 1.6689 1.0694 2.2259 1.9005 0.43267 0.64562 0.65622 1.23 0.29409 1.9927-0.14775 0.31126-0.34898 0.57361-0.5962 0.81956-0.79607 0.79184-1.8587 1.2703-2.9007 1.5465-2.1015 0.5571-4.2735 0.48972-6.3451-0.15537-0.77246-0.24061-1.5489-0.48671-2.2664-0.8682-0.48671-0.25884-0.75144-0.62663-1.2443-0.72903-0.36792-0.07644-0.84127 0.21732-1.2189 0.27846-0.92992 0.1506-1.9541-0.05257-2.6959-0.66136-0.75438-0.61916-1.3274-1.5689-1.2246-2.6288 0.03276-0.33825 0.15473-0.6392 0.34023-0.92415 0.3276-0.50354 0.87749-1.1425 1.4994-1.175 0.8378-0.04382 1.1078 1.0015 1.1171 1.6756 0.01546 1.1114-0.93849 2.0927-1.886 2.5487m3.3597-14.482c0.03763-0.24314 0.01921-0.17986 0.11124-0.42267 0.05822 0.34327-0.0926 1.2619 0.09541 1.8949 0.48897 1.6458 1.3311 3.071 1.767 4.7431 0.11656 0.44699 0.2085 0.94524 0.30455 1.3922 0.03924 0.18303 0.05235 0.40948 0.20082 0.53681 0.28436 0.24386 0.93017 0.06684 1.3211 0.0731 1.2237 0.01986 2.4644 0.05874 3.6845 0.13199m22.633 6.3393c-0.51198-0.26138-0.96215-0.68556-1.2886-1.1937-1.2592-1.9601-0.69971-4.6392 0.30836-6.5935 0.40486-0.78502 0.83909-1.5484 1.5742-2.1003 0.3712-0.27873 0.81959-0.5986 1.3132-0.44651 0.46734 0.14396 0.60071 0.62421 0.70887 1.0454 0.22653 0.88235 0.26084 1.7684 0.1842 2.673-0.16598 1.9608-1.0589 4.4252-2.1161 6.0556-0.17516 0.27011-0.29586 0.43262-0.4897 0.65756-0.26037 0.302-0.52014 0.70829-0.79982 0.97444-0.19926 0.18949-0.36904 0.29848-0.60091 0.42608-0.26544 0.1461-0.56563 0.26031-0.87716 0.30739-0.37185 0.05632-1.0241 0.02473-1.1048-0.45498-0.07466-0.44414 0.43329-1.0211 0.46307-1.5141 0.08502-1.4093-1.2403-3.0556-2.5495-3.5188-1.1729-0.41501-2.9426 1.6806-3.0214 2.755-0.04034 0.55015 0.31589 1.1088 0.71022 1.4347 0.40538 0.33493 0.97991 0.54855 1.4367 0.21257 0.45682-0.33598 0.64016-1.0111 0.59257-1.5687-0.07892-0.92518-0.82069-1.62-1.3911-2.1444m11.111 2.2986c-0.54833-0.8188-0.74075-1.9875-0.67069-3.1316 0.09852-1.606 0.61927-3.2978 1.4807-4.634 0.3923-0.6085 1.1108-1.712 1.8923-1.4893 0.72842 0.20759 0.82513 1.5003 0.81113 2.1668-0.03949 1.8833-1.0355 3.9636-2.0588 5.458-0.28905 0.42213-1.475 1.5398-1.3004 1.9828 0.57791 1.4674 2.9263 1.3014 4.151 0.88422 0.47539-0.16192 0.85451-0.3893 1.1462-0.8238 0.31177-0.46439 0.43356-0.98389 0.07072-1.4154-0.19725-0.2345-0.44668-0.37785-0.707-0.53293-0.51368-0.30597-1.0541-0.70663-1.2306-1.341-0.26111-0.93861 1.1176-1.6355 1.7753-2.0106 0.79161-0.45155 1.4834-0.6994 2.2932-1.0082m-42.357 0.37658 1.3006-0.20821 1.3775-0.06036m0.25155 0.10098c-0.01 0.58778 0.30893 2.216 0.23826 3.1056-0.07081 0.89181-0.31828 1.8772-0.79121 2.6145-0.32638 0.50887-0.73613 0.85034-1.1517 1.2189m18.05-4.5837c0.08053 0.35939 0.44032 1.7152 0.85765 1.7524 0.29134 0.02601 0.64317-0.34325 0.86991-0.49133 0.78184-0.51045 1.7744-0.74547 2.4992-0.14861m-49.455-2.9692c-0.02752 0.45835-0.0331 1.0404 0.0072 1.7178 0.08634 1.4496 0.19303 2.9565 0.30135 4.3975 0.05151 0.68542 0.06034 0.82145 0.10014 1.3799m45.567-3.7904c0.28551 1.0572 0.76345 1.8097 0.67942 2.9604-0.03249 0.44432-0.15847 1.072-0.67123 1.1725-0.33045 0.06474-0.60834-0.24253-0.81198-0.49218-1.0031-1.23-0.14252-2.5106 0.79351-3.4696m14.681 1.4825c-0.51336 0.4352-1.3246 0.9662-2.1237 1.0468-0.55387 0.05588-1.1768-0.15918-1.6119-0.32648m-39.413-2.8815c-0.22258 0.31191-0.30908 0.65698-0.47859 1.0017-0.10535 0.21428-0.31312 0.48406-0.21446 0.72003 0.47347 1.1331 2.1719 1.006 2.9894 1.5075m-3.0785-1.6446c-0.47852-0.60836-0.21107-1.2615 0.50486-1.2577m-0.51514 1.4289c-0.32728 0.44808-0.55994 0.92641-1.0734 1.4812-0.48385 0.52301-0.97419 0.80802-1.4918 1.1985m12.143-2.0188c0.09963 0.45586 0.31413 0.59754 0.46714 0.80088m-4.1617-0.76508c-0.52348 0.30346-1.869 0.46948-2.442 0.62622m-20.109 0.2525 0.15571 0.26696m6.5626 0.82336 0.25668 0.01541" fill="none" stroke="#101007" stroke-width=".786"/>
</svg>
