<?xml version="1.0" encoding="UTF-8" standalone="no"?>
<svg
   xmlns:dc="http://purl.org/dc/elements/1.1/"
   xmlns:cc="http://creativecommons.org/ns#"
   xmlns:rdf="http://www.w3.org/1999/02/22-rdf-syntax-ns#"
   xmlns:svg="http://www.w3.org/2000/svg"
   xmlns="http://www.w3.org/2000/svg"
   xmlns:sodipodi="http://sodipodi.sourceforge.net/DTD/sodipodi-0.dtd"
   xmlns:inkscape="http://www.inkscape.org/namespaces/inkscape"
   width="153.98711mm"
   height="37.043438mm"
   viewBox="0 0 153.9871 37.043438"
   version="1.1"
   id="svg8"
   inkscape:version="1.0.1 (3bc2e813f5, 2020-09-07)"
   sodipodi:docname="Unterschrift.svg"
   inkscape:export-filename="C:\Users\rober\Documents\GitHub\Source\Unterschrift.png"
   inkscape:export-xdpi="96"
   inkscape:export-ydpi="96">
  <defs
     id="defs2" />
  <sodipodi:namedview
     id="base"
     pagecolor="#ffffff"
     bordercolor="#666666"
     borderopacity="1.0"
     inkscape:pageopacity="0.0"
     inkscape:pageshadow="2"
     inkscape:zoom="1.4"
     inkscape:cx="166.02625"
     inkscape:cy="-82.501626"
     inkscape:document-units="mm"
     inkscape:current-layer="layer1"
     inkscape:document-rotation="0"
     showgrid="false"
     fit-margin-top="0"
     fit-margin-left="0"
     fit-margin-right="0"
     fit-margin-bottom="0"
     inkscape:window-width="2560"
     inkscape:window-height="1417"
     inkscape:window-x="-8"
     inkscape:window-y="-8"
     inkscape:window-maximized="1" />
  <metadata
     id="metadata5">
    <rdf:RDF>
      <cc:Work
         rdf:about="">
        <dc:format>image/svg+xml</dc:format>
        <dc:type
           rdf:resource="http://purl.org/dc/dcmitype/StillImage" />
        <dc:title />
      </cc:Work>
    </rdf:RDF>
  </metadata>
  <g
     inkscape:label="Ebene 1"
     inkscape:groupmode="layer"
     id="layer1"
     transform="translate(-38.535067,-235.64357)">
    <path
       style="fill:#0c0c0c;stroke:none;stroke-width:1.465;stroke-miterlimit:4;stroke-dasharray:none"
       d="m 40.91592,252.41251 v -0.26459 c -2.470732,-2.01789 -1.615916,-5.57979 -0.524483,-8.20208 2.295181,-5.51437 10.3319,-8.05659 15.870317,-6.74605 4.782343,1.13162 8.303948,5.09071 5.735373,9.92105 -0.923396,1.73638 -2.221442,3.1306 -3.618707,4.49403 -2.040731,1.99152 -4.398327,3.88236 -6.879166,5.29555 l 2.007235,-11.37708 1.167765,-6.35 c -1.696667,0.95192 -1.50585,3.26845 -1.851872,5.02708 -0.624496,3.17387 -1.217904,6.35262 -1.852295,9.525 -0.250931,1.25479 -0.264213,3.0869 -1.020763,4.14735 -1.669758,2.34077 -5.978789,3.24114 -6.045411,6.70057 -0.05406,2.8067 4.096517,3.4925 4.949507,6.08542 l 1.322917,-1.32292 7.9375,3.175 c -1.380993,-2.63816 -5.016209,-3.59913 -7.672917,-4.49792 0.788829,-2.66858 -0.615156,-6.56484 0.990151,-8.97202 0.969671,-1.45388 2.937483,-2.33071 4.301516,-3.37193 3.490383,-2.6644 7.36944,-5.88325 8.329612,-10.41021 0.89879,-4.23633 -2.103437,-7.60114 -5.948362,-8.90008 -4.899819,-1.65532 -11.106203,-0.32941 -15.344801,2.48679 -2.958016,1.96532 -4.233969,5.90066 -4.233969,9.3237 0,1.90868 0.24728,3.79892 2.380853,4.23334 m 100.27708,11.1125 c 0.7411,1.0287 1.96506,0.23812 1.15173,-0.63527 -1.81848,-1.95289 -5.13953,1.78038 -5.64964,3.2811 h -0.26459 c -1.23348,-5.14403 -7.94385,-3.15198 -8.12826,1.5875 -0.18997,4.88103 6.5868,2.46565 7.86368,-0.26458 h 0.26458 c 0.99695,4.14496 5.98091,3.5052 8.99584,1.87827 1.00965,-0.54477 2.03835,-1.7145 3.175,-1.93066 1.01071,-0.19235 1.91399,0.69532 2.91041,0.76517 1.73885,0.12171 3.43641,-1.3581 4.7625,-2.30028 -0.30877,1.25359 -1.5314,7.31467 1.32027,6.6802 1.5539,-0.34555 2.68473,-2.84427 3.9714,-3.76979 0.83291,2.44819 2.71806,3.02446 4.7625,1.5875 1.61687,2.76755 5.54778,-0.0516 6.35,-2.11666 h 0.26458 c 1.18825,2.35585 3.15542,0.79745 4.49792,-0.52917 0.6514,4.09893 3.99283,1.78038 6.35,0.79375 0.64505,1.1049 5.56789,2.81411 6.20078,1.54702 1.39356,-2.7895 -2.13413,-11.29348 2.53047,-11.07202 -1.10543,-1.28508 -3.40492,-1.96506 -3.87773,0.26855 -0.62283,2.94296 0.17356,6.27592 0.17356,9.25645 -0.97843,-0.18177 -2.2053,-0.0614 -3.1197,-0.42016 -0.8247,-0.32358 -1.18348,-1.11733 -2.17593,-1.05145 -1.1901,0.0788 -2.77072,1.76821 -3.88065,1.36022 -1.27529,-0.46884 -0.16139,-2.82125 -0.88423,-3.69252 -0.96335,-1.16152 -3.59754,2.89639 -4.22699,3.53933 -0.26643,-0.69189 -0.54345,-2.4855 -1.20279,-2.86385 -0.80169,-0.46038 -1.38748,1.05807 -1.64968,1.5412 -0.89958,1.65735 -2.25478,3.29009 -4.29128,2.64556 1.15676,-0.96625 1.7698,-1.91902 1.85209,-3.43958 -0.99775,0.0214 -2.02856,0.0564 -2.73791,0.86757 -0.63103,0.72125 -0.72231,2.09894 -1.7743,2.40374 -1.2184,0.35322 -1.78805,-1.42214 -2.68023,-1.89706 -1.8743,-0.99748 -3.83037,1.99972 -4.44923,3.38825 h -0.26458 c 0,-1.85261 -0.17092,-4.68339 1.02049,-6.24681 1.74784,-2.29367 4.97232,-3.10965 6.80377,-5.65944 3.08001,-4.28826 5.12788,-8.52178 5.82189,-13.75833 0.27199,-2.05269 -0.3265,-6.20094 -3.31708,-4.22476 -1.78356,1.17879 -2.80618,3.50334 -3.87324,5.28309 -3.16336,5.27497 -4.54581,11.10245 -6.98288,16.65817 -1.18031,2.69028 -4.64397,3.93991 -7.14587,2.921 4.79346,-6.46748 8.38491,-13.41745 9.63348,-21.43125 0.26008,-1.66944 0.83291,-9.57813 -2.75405,-7.88607 -2.08783,0.98481 -3.2004,3.83352 -4.16824,5.7694 -2.744,5.48801 -4.80034,11.67098 -5.86396,17.72708 -0.33153,1.88886 0.13705,5.52265 -0.78661,7.09481 -2.06163,3.50943 -10.981,1.94151 -6.59501,-2.24605 0.60881,-0.58129 1.3388,-1.00277 2.06772,-1.40917 m -32.27916,-16.40417 c -1.17264,-6.31719 3.89969,-9.02277 9.525,-8.99562 2.27806,0.011 6.8318,0.96298 7.38928,3.70395 0.46011,2.26116 -2.92179,4.28697 -4.47887,5.23777 -1.45944,0.8912 -2.91703,1.77673 -4.49791,2.43515 0.52308,-2.53585 0.59266,-8.82205 3.96875,-8.73125 -0.79481,-1.12466 -2.36538,-0.87871 -3.05806,0.29337 -1.5068,2.54979 -0.94456,6.0184 -2.19498,8.67489 -0.73052,1.55171 -2.9972,1.87653 -3.34804,3.73071 -0.24103,1.27492 1.03161,1.92627 1.98649,2.38228 -1.05357,3.74068 -3.0054,8.51429 -2.38125,12.43542 h 0.79375 l 2.64584,-11.64167 c 1.86081,0.77893 3.51922,1.92326 5.00327,3.28824 1.02526,0.94298 1.97194,2.07619 2.59609,3.32634 0.51514,1.03161 0.49186,1.79785 0.42677,2.91042 -0.39661,6.78286 -9.55807,3.44911 -13.58238,1.62348 -2.0492,-0.92974 -5.56763,-2.40426 -2.38125,-4.26931 v -0.26459 c -1.50707,0.15108 -4.09178,1.1901 -2.71383,3.11944 0.86227,1.20756 2.74796,1.8677 4.03674,2.50137 3.79836,1.8677 11.36333,4.65588 15.05347,1.20174 1.89363,-1.77244 1.1565,-3.46022 1.34223,-5.65203 0.0884,-1.04193 0.77841,-2.02142 1.0668,-3.0226 l 2.11667,0.52917 c -0.97552,-2.77654 -3.15833,-1.07844 -3.96875,0.79375 -1.91109,-3.22501 -5.02999,-6.33995 -8.73125,-7.40834 0.31062,-1.19991 0.3728,-2.89848 1.20756,-3.86545 2.65192,-3.07176 7.77346,-3.31282 9.89171,-7.25094 1.62216,-3.01617 -0.99457,-5.54963 -3.69094,-6.59251 -4.09522,-1.58393 -9.86922,-1.19933 -13.18022,1.92087 -1.68777,1.59049 -3.09562,5.87867 -0.84269,7.58595 m 48.41875,-9.26042 c 1.134,2.34318 0.77179,4.92816 0.37306,7.40834 -0.87948,5.47486 -3.07605,10.65805 -6.01372,15.34583 -1.1848,1.89018 -2.32595,3.9497 -4.14893,5.29167 0,-7.07576 2.37834,-15.09842 5.4917,-21.43125 1.13744,-2.3136 2.16931,-5.04344 4.29789,-6.61459 m -65.881253,21.69584 2.910417,-1.32292 c -0.477309,3.69676 -2.283619,10.50766 -7.14375,10.02427 -1.913996,-0.19024 -2.152915,-2.67362 -3.518694,-2.90248 -0.829204,-0.13864 -1.967706,0.90673 -2.831306,1.08029 0.242358,-0.43285 0.497152,-0.84402 0.626533,-1.32953 1.21285,-4.54898 -6.488906,-0.61727 -2.478617,1.59412 -0.469106,0.66384 -0.961495,1.23904 -1.588823,1.76636 -0.48895,0.41116 -1.022879,0.79084 -1.586177,1.09405 -4.139935,2.227 -4.499239,-3.1631 -5.291666,-5.77083 6.360583,-1.80578 11.118056,-7.61709 14.319514,-13.22917 1.782498,-3.12441 2.407709,-8.67529 -2.942431,-7.53594 -5.884333,1.25317 -10.266098,7.91208 -11.706225,13.35678 -0.481806,1.82245 -0.143933,4.36351 -0.888735,6.02509 -0.959644,2.14048 -4.133586,-0.56145 -4.679157,0.93345 -0.457464,1.25359 1.173692,1.39964 1.928284,1.24354 0.409839,1.06415 1.065741,2.30346 0.480748,3.42794 -0.990071,1.90315 -4.886061,1.65444 -6.158177,0.12859 -1.137444,-1.36446 1.365249,-2.71965 2.502429,-2.64901 0.706966,0.0439 1.413668,0.31195 2.116666,0.4154 v -0.26459 c -1.261798,-0.58896 -2.589477,-1.08743 -3.968485,-0.52678 -1.460236,0.59372 -2.810854,2.42517 -1.472936,3.82534 1.645973,1.72271 6.666442,2.19631 7.935648,-0.16959 0.75274,-1.40309 0.126736,-3.07843 -0.37756,-4.45188 l 1.852083,-0.26459 c 0.0463,1.07765 0.235215,2.12911 0.50165,3.175 0.185473,0.72814 0.420688,1.45019 0.774965,2.11561 2.534973,4.76409 6.660621,0.27358 9.306719,-1.45732 1.004358,-0.65696 2.350293,-0.57759 3.439583,-1.18745 1.648619,4.25212 8.169275,3.19405 9.525,-0.79375 h 0.264583 c 0.0426,2.05951 0.316177,4.77149 2.162705,6.04652 3.928268,2.71224 7.834315,-2.69981 6.303965,-6.31111 h -0.26459 c 0.39132,2.38231 -2.548198,7.12232 -5.262823,4.91226 -2.438665,-1.98517 -1.573478,-6.80323 -0.887148,-9.41017 0.22516,-0.85461 0.454025,-2.37517 1.236662,-2.90301 1.163638,-0.78528 3.36259,0.15478 4.648729,0.25717 -0.5715,-1.66872 -2.96836,-1.73117 -4.497916,-1.85208 l 3.968746,-15.34583 c -1.747569,0.28905 -1.865838,2.23943 -2.307163,3.70416 -1.067594,3.54426 -1.872192,7.75928 -3.474773,11.08393 -0.775758,1.60946 -2.825485,1.56474 -3.478477,3.46816 m 77.787503,-17.72709 c 1.30201,5.46862 -1.48273,10.69253 -4.40981,15.08125 -1.59809,2.3966 -3.311,4.64397 -6.17353,5.55625 1.20518,-5.20938 3.64385,-10.45448 6.27566,-15.08125 1.14776,-2.01795 2.25477,-4.34382 4.30768,-5.55625 m -98.425003,20.90209 c 0,-6.30344 1.980935,-11.86807 6.879167,-16.06016 1.523735,-1.30408 5.074708,-3.91697 7.059612,-2.06012 1.580092,1.47804 -0.385233,4.84581 -1.293283,6.21403 -3.269456,4.92619 -6.881284,9.95627 -12.645496,11.90625 m 44.185413,-10.31875 -0.26458,2.11666 -1.32292,-0.52916 1.5875,-1.5875 m -65.087496,7.40833 -0.529167,7.9375 c -1.318842,-0.5117 -3.249401,-1.0631 -3.960389,-2.40586 -1.236028,-2.33441 2.850912,-4.71646 4.489556,-5.53164 m 91.810416,3.79227 0.0881,0.0884 c -0.13044,0.0434 -0.29263,-0.0884 -0.0881,-0.0884 m -61.11875,0.17648 -0.529166,2.11667 c -1.577446,-0.52573 -0.659077,-1.77192 0.529166,-2.11667 m 52.3875,0.72919 c 4.27143,0.30454 1.25995,5.3131 -1.85102,5.03105 -3.57109,-0.32385 -1.04696,-5.23742 1.85102,-5.03105 z"
       id="path847" />
  </g>
</svg>
